<?xml version="1.0" encoding="UTF-8" standalone="no"?>
<!DOCTYPE svg PUBLIC "-//W3C//DTD SVG 1.1//EN" "http://www.w3.org/Graphics/SVG/1.1/DTD/svg11.dtd">
<svg width="100%" height="100%" viewBox="0 0 1568 672" version="1.1" xmlns="http://www.w3.org/2000/svg" xmlns:xlink="http://www.w3.org/1999/xlink" xml:space="preserve" xmlns:serif="http://www.serif.com/" style="fill-rule:evenodd;clip-rule:evenodd;stroke-linejoin:round;stroke-miterlimit:2;">
    <g id="Background" transform="matrix(1.53125,0,0,1.53125,0,0)">
        <path d="M867.356,285.953C849.692,279.827 829.261,263.308 831.182,232.471C831.696,224.215 836.794,213.374 837.608,212.625C839.895,210.521 838.836,213.531 838.954,218.508C840.047,264.799 873.27,261.811 885.249,254.11C904.421,241.786 898.316,222.028 899.159,134.498C899.275,122.5 911.149,109.282 939.487,106.351C950.261,105.237 950.91,106.732 950.91,109.492C950.915,214.442 951.151,214.398 950.883,223.516C950.121,249.498 935.424,278.303 903.392,287.036C886.731,291.579 870.126,286.758 867.356,285.953Z" style="fill:url(#_Linear1);"/>
        <path d="M599.957,289.544C599.98,289.448 600.02,287.018 601.503,284.502C603.963,280.328 620.761,292.7 640.532,286.598C658.403,281.083 660.122,256.526 655.687,259.775C629.182,279.193 601.958,262.2 594.533,254.466C565.513,224.237 587.642,160.44 644.55,169.196C676.764,174.153 678.079,172.721 678.806,175.409C679.425,177.697 678.965,252.774 678.924,259.502C678.615,309.869 634.466,313.014 602.507,303.481C597.926,302.115 599.508,295.451 599.957,289.544Z" style="fill:rgb(28,43,81);"/>
        <path d="M811.383,289.858C791.954,283.38 747.407,270.091 742.176,213.525C741.648,207.813 741.865,101.022 742.069,100.336C743.285,96.248 784.657,99.988 793.285,114.613C797.632,121.981 791.044,190.406 797.408,223.519C806.066,268.567 842.749,288.22 861.534,293.423C861.843,293.508 871.87,296.285 864.449,296.178C834.645,295.749 815.528,290.907 811.383,289.858Z" style="fill:url(#_Linear2);"/>
        <path d="M411.129,173.497C411.119,263.799 411.449,264.534 409.546,265.569C408.495,266.141 393.811,267.588 392.816,264.39C391.689,260.774 393.516,253.981 388.173,259.14C370.553,276.156 318.723,273.036 314.418,223.507C311.124,185.609 351.714,155.845 386.475,173.553C386.664,173.649 388.967,174.822 389.124,173.398C389.66,168.544 387.74,128.149 390.4,126.391C393.117,124.596 408.399,124.795 410.219,126.759C411.388,128.02 411.117,128.311 411.129,173.497Z" style="fill:rgb(28,43,81);"/>
        <path d="M110.5,149.923C86.583,149.914 84.764,149.206 84.742,152.5C84.714,156.724 84.637,186.567 84.74,187.455C84.949,189.246 85.988,188.437 137.499,188.887C143.819,188.943 142.933,192.973 142.64,203.504C142.466,209.772 139.788,208.118 133.5,208.131C110.412,208.179 110.515,208.021 87.495,208.113C83.943,208.127 84.691,210.048 84.65,234.501C84.6,263.837 85.346,265.681 81.459,266.149C80.837,266.224 66.457,266.245 65.581,266.086C62.139,265.462 62.804,263.762 62.774,208.499C62.733,132.078 62.658,131.368 64.501,130.502C66.059,129.769 144.855,129.425 146.422,130.619C149.252,132.773 147.93,147.76 147.429,148.458C146.155,150.23 145.639,149.902 110.5,149.923Z" style="fill:rgb(28,43,81);"/>
        <path d="M264.457,168.853C303.568,174.925 298.57,210.12 298.636,249.5C298.655,260.54 299.832,266.185 294.493,266.203C281.624,266.248 276.824,267.487 276.792,261.495C276.523,211.122 280.602,191.939 258.456,187.77C244.198,185.085 228.45,196.218 228.404,205.5C228.122,263.258 229.6,264.509 226.641,265.778C225.522,266.259 209.3,266.867 207.726,265.256C206.501,264.002 206.533,263.755 206.496,195.5C206.484,174.282 205.66,170.518 210.494,170.406C222.409,170.128 225.254,169.246 226.131,175.548C226.828,180.547 226.171,181.208 227.538,181.369C229.664,181.619 230.08,176.592 242.425,171.339C251.674,167.403 262.386,168.761 264.457,168.853Z" style="fill:rgb(28,43,81);"/>
        <path d="M555.501,266.193C554.702,266.192 546.322,266.179 545.534,265.458C542.849,263 544.867,227.59 544.139,211.518C542.78,181.502 511.513,181.57 497.855,199.771C495.788,202.525 496.139,202.85 496.133,243.5C496.13,262.768 497.691,266.201 490.5,266.217C479.392,266.241 474.348,267.896 474.238,260.498C474.137,253.699 473.566,215.316 474.263,175.5C474.375,169.094 478.996,170.208 489.502,170.427C497.357,170.59 492.05,186.129 496.553,180.563C511.204,162.45 558.031,161.198 565.053,201.58C566.319,208.862 566.549,263.369 565.067,265.128C563.265,267.268 562.747,266.075 555.501,266.193Z" style="fill:rgb(28,43,81);"/>
        <path d="M823.03,212.414C819.736,230.917 820.536,230.94 821.457,248.491C821.959,258.06 786.539,206.886 810.775,162.656C831.219,125.347 893.508,110.982 911.908,60.698C914.246,54.307 914.837,64.083 914.86,64.465C916.472,91.177 899.779,112.905 874.424,138.426C846.566,166.468 829.573,180.18 823.03,212.414Z" style="fill:url(#_Linear3);"/>
        <path d="M639.559,248.969C633.799,249.378 612.908,252.575 605.441,228.514C598.569,206.369 619.06,176.605 655.334,190.961C657.809,191.941 657.264,192.897 657.33,235.5C657.337,239.941 658.47,241.746 647.521,246.544C643.688,248.224 640.214,248.851 639.559,248.969Z" style="fill:rgb(254,254,254);"/>
        <path d="M337.033,217.472C339.232,191.584 360.89,184.253 377.516,188.441C392.123,192.12 389.08,196.517 389.105,200.5C389.332,237.343 390.206,237.793 388.153,240.219C377.352,252.99 336.342,257.218 337.033,217.472Z" style="fill:rgb(254,254,254);"/>
        <path d="M431.807,178.501C431.91,176.851 431.759,175.193 431.863,173.543C432.082,170.05 436.892,170.045 449.5,170.499C454.265,170.671 453.634,173.159 453.64,211.499C453.648,263.082 453.736,263.188 453.095,264.292C450.968,267.957 433.644,265.786 433.403,265.673C431.562,264.811 431.8,264.062 431.807,178.501Z" style="fill:rgb(28,42,80);"/>
        <path d="M164.076,198.5C164.083,175.354 163.866,173.089 164.852,171.77C165.387,171.054 165.697,170.034 180.503,170.367C180.936,170.376 184.659,170.46 185.473,172.511C186.267,174.513 185.844,262.926 185.698,263.541C184.512,268.518 165.845,265.745 165.478,265.529C163.938,264.623 164.051,264.083 164.076,198.5Z" style="fill:rgb(29,43,82);"/>
        <path d="M817.554,105.425C791.287,83.836 821.372,48.659 846.358,63.747C874.153,80.531 850.612,126.085 817.554,105.425Z" style="fill:url(#_Linear4);"/>
        <path d="M716.399,137.893C730.737,143.417 733.493,171.318 705.293,189.131C699.702,192.663 695.939,184.008 698.857,181.926C700.096,181.042 719.355,167.298 707.584,165.027C695.711,162.736 691.29,134.553 716.399,137.893Z" style="fill:rgb(29,43,82);"/>
        <path d="M174.504,124.967C193.768,126.485 190.352,145.583 182.506,150.509C163.822,162.24 148.621,127.622 174.504,124.967Z" style="fill:rgb(28,42,80);"/>
        <path d="M456.145,135.571C458,164.335 419.195,152.638 430.562,131.535C433.783,125.556 449.649,117.92 456.145,135.571Z" style="fill:rgb(28,43,81);"/>
        <g transform="matrix(0.653061,0,0,0.653061,-14.367347,31.346939)">
            <g transform="matrix(72,0,0,72,1475.036,519.432)">
            </g>
            <text x="115.964px" y="519.432px" style="font-family:'AvenirNext-DemiBold', 'Avenir Next', sans-serif;font-weight:600;font-size:72px;fill:rgb(51,91,79);">N<tspan x="187.46px 254.204px 310.436px 371.06px 406.7px 472.148px 507.788px 584.252px 655.748px 689.084px 765.764px 832.508px 891.764px 923.372px 979.604px 1038.86px 1072.196px 1107.836px 1189.412px 1248.668px 1315.412px 1367.54px 1424.204px " y="519.432px 519.432px 519.432px 519.432px 519.432px 519.432px 519.432px 519.432px 519.432px 519.432px 519.432px 519.432px 519.432px 519.432px 519.432px 519.432px 519.432px 519.432px 519.432px 519.432px 519.432px 519.432px 519.432px ">UTRICIÓN QUE TE IMPULSA</tspan></text>
        </g>
    </g>
    <defs>
        <linearGradient id="_Linear1" x1="0" y1="0" x2="1" y2="0" gradientUnits="userSpaceOnUse" gradientTransform="matrix(7.183673,167.836735,-158.393291,6.779479,841.142857,105.795918)"><stop offset="0" style="stop-color:rgb(112,191,31);stop-opacity:1"/><stop offset="1" style="stop-color:rgb(0,93,75);stop-opacity:1"/></linearGradient>
        <linearGradient id="_Linear2" x1="0" y1="0" x2="1" y2="0" gradientUnits="userSpaceOnUse" gradientTransform="matrix(7.183673,167.836735,-158.393291,6.779479,841.142857,105.795918)"><stop offset="0" style="stop-color:rgb(112,191,31);stop-opacity:1"/><stop offset="1" style="stop-color:rgb(0,93,75);stop-opacity:1"/></linearGradient>
        <linearGradient id="_Linear3" x1="0" y1="0" x2="1" y2="0" gradientUnits="userSpaceOnUse" gradientTransform="matrix(104.489796,-108.408163,183.874963,177.22888,807.836735,187.428571)"><stop offset="0" style="stop-color:rgb(249,111,0);stop-opacity:1"/><stop offset="1" style="stop-color:rgb(250,176,0);stop-opacity:1"/></linearGradient>
        <linearGradient id="_Linear4" x1="0" y1="0" x2="1" y2="0" gradientUnits="userSpaceOnUse" gradientTransform="matrix(52.897959,-63.346939,107.445009,89.722121,826.77551,146.938776)"><stop offset="0" style="stop-color:rgb(249,111,0);stop-opacity:1"/><stop offset="1" style="stop-color:rgb(250,176,0);stop-opacity:1"/></linearGradient>
    </defs>
</svg>
